<?xml version="1.0" encoding="UTF-8" standalone="no"?>
<!-- Created with Inkscape (http://www.inkscape.org/) -->

<svg
   width="61.599998mm"
   height="61.599998mm"
   viewBox="0 0 61.599998 61.599998"
   version="1.1"
   id="svg8"
   inkscape:version="1.2.1 (9c6d41e410, 2022-07-14, custom)"
   sodipodi:docname="limit-graph.svg"
   xmlns:inkscape="http://www.inkscape.org/namespaces/inkscape"
   xmlns:sodipodi="http://sodipodi.sourceforge.net/DTD/sodipodi-0.dtd"
   xmlns="http://www.w3.org/2000/svg"
   xmlns:svg="http://www.w3.org/2000/svg"
   xmlns:rdf="http://www.w3.org/1999/02/22-rdf-syntax-ns#"
   xmlns:cc="http://creativecommons.org/ns#"
   xmlns:dc="http://purl.org/dc/elements/1.1/">
  <defs
     id="defs2">
    <clipPath
       id="clip1">
      <path
         d="M 0.613281,11 H 77 V 130 H 0.613281 Z m 0,0"
         id="path769" />
    </clipPath>
    <clipPath
       id="clip2">
      <path
         d="m 111,0.996094 h 63.96094 V 128 H 111 Z m 0,0"
         id="path772" />
    </clipPath>
    <clipPath
       id="clip3">
      <path
         d="m 170,8 h 4.96094 v 6 H 170 Z m 0,0"
         id="path775" />
    </clipPath>
  </defs>
  <sodipodi:namedview
     id="base"
     pagecolor="#ffffff"
     bordercolor="#666666"
     borderopacity="1.0"
     inkscape:pageopacity="0.0"
     inkscape:pageshadow="2"
     inkscape:zoom="2.8125141"
     inkscape:cx="189.86571"
     inkscape:cy="148.97703"
     inkscape:document-units="mm"
     inkscape:current-layer="layer1"
     showgrid="false"
     showborder="true"
     width="200mm"
     showguides="true"
     inkscape:guide-bbox="true"
     inkscape:window-width="1342"
     inkscape:window-height="744"
     inkscape:window-x="10"
     inkscape:window-y="10"
     inkscape:window-maximized="1"
     inkscape:showpageshadow="2"
     inkscape:pagecheckerboard="0"
     inkscape:deskcolor="#d1d1d1">
    <inkscape:grid
       type="xygrid"
       id="grid815"
       units="mm"
       spacingx="10"
       spacingy="10"
       empspacing="4"
       dotted="false"
       originx="0"
       originy="0" />
  </sodipodi:namedview>
  <metadata
     id="metadata5">
    <rdf:RDF>
      <cc:Work
         rdf:about="">
        <dc:format>image/svg+xml</dc:format>
        <dc:type
           rdf:resource="http://purl.org/dc/dcmitype/StillImage" />
      </cc:Work>
    </rdf:RDF>
  </metadata>
  <g
     inkscape:label="Layer 1"
     inkscape:groupmode="layer"
     id="layer1"
     transform="translate(0,-177)">
    <g
       id="surface1"
       transform="matrix(0.35249114,0,0,0.35164528,-0.13658758,176.78296)">
      <path
         style="fill:none;stroke:#cacaca;stroke-width:0.3985;stroke-linecap:butt;stroke-linejoin:miter;stroke-miterlimit:10;stroke-opacity:1"
         d="M 2.8125e-4,-7.5e-4 V 174.34691 M 12.453406,-7.5e-4 V 174.34691 M 24.906531,-7.5e-4 V 174.34691 M 37.359656,-7.5e-4 V 174.34691 M 49.812781,-7.5e-4 V 174.34691 M 62.265906,-7.5e-4 V 174.34691 M 74.719031,-7.5e-4 V 174.34691 M 87.176063,-7.5e-4 V 174.34691 M 99.629188,-7.5e-4 V 174.34691 M 112.08231,-7.5e-4 V 174.34691 M 124.53544,-7.5e-4 V 174.34691 M 136.98856,-7.5e-4 V 174.34691 M 149.44169,-7.5e-4 V 174.34691 M 161.89481,-7.5e-4 V 174.34691 M 174.34794,-7.5e-4 v 174.34766"
         transform="matrix(1,0,0,-1,0.613,175.343)"
         id="path780" />
      <path
         style="fill:none;stroke:#cacaca;stroke-width:0.3985;stroke-linecap:butt;stroke-linejoin:miter;stroke-miterlimit:10;stroke-opacity:1"
         d="M 2.8125e-4,-7.5e-4 H 174.34794 M 2.8125e-4,12.452375 H 174.34794 M 2.8125e-4,24.9055 H 174.34794 M 2.8125e-4,37.358625 H 174.34794 M 2.8125e-4,49.815656 H 174.34794 M 2.8125e-4,62.268781 H 174.34794 M 2.8125e-4,74.721906 H 174.34794 M 2.8125e-4,87.175031 H 174.34794 M 2.8125e-4,99.628156 H 174.34794 M 2.8125e-4,112.08128 H 174.34794 M 2.8125e-4,124.53441 H 174.34794 M 2.8125e-4,136.98753 H 174.34794 M 2.8125e-4,149.44066 H 174.34794 M 2.8125e-4,161.89378 H 174.34794 M 2.8125e-4,174.34691 H 174.34794"
         transform="matrix(1,0,0,-1,0.613,175.343)"
         id="path782" />
      <path
         style="fill:none;stroke:#7f7f7f;stroke-width:0.19925;stroke-linecap:butt;stroke-linejoin:miter;stroke-miterlimit:10;stroke-opacity:1"
         d="M 2.8125e-4,85.757062 V 88.593 M 12.453406,85.757062 V 88.593 M 24.906531,85.757062 V 88.593 M 37.359656,85.757062 V 88.593 M 49.812781,85.757062 V 88.593 M 62.265906,85.757062 V 88.593 M 74.719031,85.757062 V 88.593 M 87.176063,85.757062 V 88.593 M 99.629188,85.757062 V 88.593 M 112.08231,85.757062 V 88.593 m 12.45313,-2.835938 V 88.593 m 12.45312,-2.835938 V 88.593 m 12.45313,-2.835938 V 88.593 m 12.45312,-2.835938 V 88.593 m 12.45313,-2.835938 V 88.593"
         transform="matrix(1,0,0,-1,0.613,175.343)"
         id="path784" />
      <path
         style="fill:none;stroke:#7f7f7f;stroke-width:0.19925;stroke-linecap:butt;stroke-linejoin:miter;stroke-miterlimit:10;stroke-opacity:1"
         d="m 12.453406,85.050031 v 4.25 m 24.90625,-4.25 v 4.25 m 24.90625,-4.25 v 4.25 m 49.816404,-4.25 v 4.25 m 24.90625,-4.25 v 4.25 m 24.90625,-4.25 v 4.25"
         transform="matrix(1,0,0,-1,0.613,175.343)"
         id="path786" />
      <path
         style="fill:none;stroke:#7f7f7f;stroke-width:0.19925;stroke-linecap:butt;stroke-linejoin:miter;stroke-miterlimit:10;stroke-opacity:1"
         d="m 85.758094,-7.5e-4 h 2.832031 m -2.832031,12.453125 h 2.832031 M 85.758094,24.9055 h 2.832031 m -2.832031,12.453125 h 2.832031 m -2.832031,12.457031 h 2.832031 m -2.832031,12.453125 h 2.832031 m -2.832031,12.453125 h 2.832031 m -2.832031,12.453125 h 2.832031 m -2.832031,12.453125 h 2.832031 m -2.832031,12.453124 h 2.832031 m -2.832031,12.45313 h 2.832031 m -2.832031,12.45312 h 2.832031 m -2.832031,12.45313 h 2.832031 m -2.832031,12.45312 h 2.832031 m -2.832031,12.45313 h 2.832031"
         transform="matrix(1,0,0,-1,0.613,175.343)"
         id="path788" />
      <path
         style="fill:none;stroke:#7f7f7f;stroke-width:0.19925;stroke-linecap:butt;stroke-linejoin:miter;stroke-miterlimit:10;stroke-opacity:1"
         d="m 85.047156,12.452375 h 4.253907 m -4.253907,24.90625 h 4.253907 m -4.253907,24.910156 h 4.253907 m -4.253907,49.812499 h 4.253907 m -4.253907,24.90625 h 4.253907 m -4.253907,24.90625 h 4.253907"
         transform="matrix(1,0,0,-1,0.613,175.343)"
         id="path790" />
      <path
         style="fill:none;stroke:#000000;stroke-width:0.3985;stroke-linecap:butt;stroke-linejoin:miter;stroke-miterlimit:10;stroke-opacity:1"
         d="M 1.992469,87.175031 H 172.35575"
         transform="matrix(1,0,0,-1,0.613,175.343)"
         id="path792" />
      <path
         style="fill:#000000;fill-opacity:1;fill-rule:nonzero;stroke:none"
         d="m 0.613281,88.167969 3.1875,1.59375 -1.195312,-1.59375 1.195312,-1.59375"
         id="path794" />
      <path
         style="fill:#000000;fill-opacity:1;fill-rule:nonzero;stroke:none"
         d="m 174.96094,88.167969 -3.1875,-1.59375 1.19531,1.59375 -1.19531,1.59375"
         id="path796" />
      <path
         style="fill:none;stroke:#000000;stroke-width:0.3985;stroke-linecap:butt;stroke-linejoin:miter;stroke-miterlimit:10;stroke-opacity:1"
         d="M 87.176063,1.991437 V 172.35472"
         transform="matrix(1,0,0,-1,0.613,175.343)"
         id="path798" />
      <path
         style="fill:#000000;fill-opacity:1;fill-rule:nonzero;stroke:none"
         d="m 87.789062,175.34375 1.59375,-3.1875 -1.59375,1.19531 -1.597656,-1.19531"
         id="path800" />
      <path
         style="fill:#000000;fill-opacity:1;fill-rule:nonzero;stroke:none"
         d="m 87.789062,0.996094 -1.597656,3.1875 1.597656,-1.195313 1.59375,1.195313"
         id="path802" />
      <g
         style="fill:#000000;fill-opacity:1"
         id="g806">
        <g
           id="use804"
           transform="translate(6.7010002,100.899)">
          <path
             style="stroke:none"
             d="m 6.5625,-2.296875 c 0.171875,0 0.359375,0 0.359375,-0.203125 0,-0.1875 -0.1875,-0.1875 -0.359375,-0.1875 H 1.171875 c -0.171875,0 -0.34375,0 -0.34375,0.1875 0,0.203125 0.171875,0.203125 0.34375,0.203125 z m 0,0"
             id="path1373" />
        </g>
      </g>
      <g
         style="fill:#000000;fill-opacity:1"
         id="g810">
        <g
           id="use808"
           transform="translate(14.45,100.899)">
          <path
             style="stroke:none"
             d="m 1.3125,-3.265625 v -0.25 c 0,-2.515625 1.234375,-2.875 1.75,-2.875 0.234375,0 0.65625,0.0625 0.875,0.40625 -0.15625,0 -0.546875,0 -0.546875,0.4375 0,0.3125 0.234375,0.46875 0.453125,0.46875 0.15625,0 0.46875,-0.09375 0.46875,-0.484375 0,-0.59375 -0.4375,-1.078125 -1.265625,-1.078125 -1.28125,0 -2.625,1.28125 -2.625,3.484375 0,2.671875 1.15625,3.375 2.078125,3.375 1.109375,0 2.0625,-0.9375 2.0625,-2.25 0,-1.265625 -0.890625,-2.21875 -2,-2.21875 -0.671875,0 -1.046875,0.5 -1.25,0.984375 z M 2.5,-0.0625 c -0.625,0 -0.921875,-0.59375 -0.984375,-0.75 -0.1875,-0.46875 -0.1875,-1.265625 -0.1875,-1.4375 0,-0.78125 0.328125,-1.78125 1.21875,-1.78125 0.171875,0 0.625,0 0.9375,0.625 0.171875,0.359375 0.171875,0.875 0.171875,1.359375 0,0.484375 0,0.984375 -0.171875,1.34375 C 3.1875,-0.109375 2.734375,-0.0625 2.5,-0.0625 Z m 0,0"
             id="path1397" />
        </g>
      </g>
      <g
         style="fill:#000000;fill-opacity:1"
         id="g814">
        <g
           id="use812"
           transform="translate(31.608,100.899)">
          <path
             style="stroke:none"
             d="m 6.5625,-2.296875 c 0.171875,0 0.359375,0 0.359375,-0.203125 0,-0.1875 -0.1875,-0.1875 -0.359375,-0.1875 H 1.171875 c -0.171875,0 -0.34375,0 -0.34375,0.1875 0,0.203125 0.171875,0.203125 0.34375,0.203125 z m 0,0"
             id="path1377" />
        </g>
      </g>
      <g
         style="fill:#000000;fill-opacity:1"
         id="g818">
        <g
           id="use816"
           transform="translate(39.356998,100.899)">
          <path
             style="stroke:none"
             d="m 2.9375,-1.640625 v 0.859375 c 0,0.359375 -0.03125,0.46875 -0.765625,0.46875 H 1.96875 V 0 C 2.375,-0.03125 2.890625,-0.03125 3.3125,-0.03125 c 0.421875,0 0.9375,0 1.359375,0.03125 v -0.3125 h -0.21875 c -0.734375,0 -0.75,-0.109375 -0.75,-0.46875 V -1.640625 H 4.6875 v -0.3125 H 3.703125 v -4.53125 c 0,-0.203125 0,-0.265625 -0.171875,-0.265625 -0.078125,0 -0.109375,0 -0.1875,0.125 l -3.0625,4.671875 v 0.3125 z m 0.046875,-0.3125 H 0.5625 l 2.421875,-3.71875 z m 0,0"
             id="path1413" />
        </g>
      </g>
      <g
         style="fill:#000000;fill-opacity:1"
         id="g822">
        <g
           id="use820"
           transform="translate(56.514999,100.899)">
          <path
             style="stroke:none"
             d="m 6.5625,-2.296875 c 0.171875,0 0.359375,0 0.359375,-0.203125 0,-0.1875 -0.1875,-0.1875 -0.359375,-0.1875 H 1.171875 c -0.171875,0 -0.34375,0 -0.34375,0.1875 0,0.203125 0.171875,0.203125 0.34375,0.203125 z m 0,0"
             id="path1381" />
        </g>
      </g>
      <g
         style="fill:#000000;fill-opacity:1"
         id="g826">
        <g
           id="use824"
           transform="translate(64.264,100.899)">
          <path
             style="stroke:none"
             d="m 1.265625,-0.765625 1.0625,-1.03125 c 1.546875,-1.375 2.140625,-1.90625 2.140625,-2.90625 0,-1.140625 -0.890625,-1.9375 -2.109375,-1.9375 -1.125,0 -1.859375,0.921875 -1.859375,1.8125 0,0.546875 0.5,0.546875 0.53125,0.546875 0.171875,0 0.515625,-0.109375 0.515625,-0.53125 0,-0.25 -0.1875,-0.515625 -0.53125,-0.515625 -0.078125,0 -0.09375,0 -0.125,0.015625 0.21875,-0.65625 0.765625,-1.015625 1.34375,-1.015625 0.90625,0 1.328125,0.8125 1.328125,1.625 C 3.5625,-3.90625 3.078125,-3.125 2.515625,-2.5 l -1.90625,2.125 C 0.5,-0.265625 0.5,-0.234375 0.5,0 H 4.203125 L 4.46875,-1.734375 H 4.234375 C 4.171875,-1.4375 4.109375,-1 4,-0.84375 3.9375,-0.765625 3.28125,-0.765625 3.0625,-0.765625 Z m 0,0"
             id="path1429" />
        </g>
      </g>
      <g
         style="fill:#000000;fill-opacity:1"
         id="g830">
        <g
           id="use828"
           transform="translate(110.203,100.899)">
          <path
             style="stroke:none"
             d="m 1.265625,-0.765625 1.0625,-1.03125 c 1.546875,-1.375 2.140625,-1.90625 2.140625,-2.90625 0,-1.140625 -0.890625,-1.9375 -2.109375,-1.9375 -1.125,0 -1.859375,0.921875 -1.859375,1.8125 0,0.546875 0.5,0.546875 0.53125,0.546875 0.171875,0 0.515625,-0.109375 0.515625,-0.53125 0,-0.25 -0.1875,-0.515625 -0.53125,-0.515625 -0.078125,0 -0.09375,0 -0.125,0.015625 0.21875,-0.65625 0.765625,-1.015625 1.34375,-1.015625 0.90625,0 1.328125,0.8125 1.328125,1.625 C 3.5625,-3.90625 3.078125,-3.125 2.515625,-2.5 l -1.90625,2.125 C 0.5,-0.265625 0.5,-0.234375 0.5,0 H 4.203125 L 4.46875,-1.734375 H 4.234375 C 4.171875,-1.4375 4.109375,-1 4,-0.84375 3.9375,-0.765625 3.28125,-0.765625 3.0625,-0.765625 Z m 0,0"
             id="path1433" />
        </g>
      </g>
      <g
         style="fill:#000000;fill-opacity:1"
         id="g834">
        <g
           id="use832"
           transform="translate(135.11,100.899)">
          <path
             style="stroke:none"
             d="m 2.9375,-1.640625 v 0.859375 c 0,0.359375 -0.03125,0.46875 -0.765625,0.46875 H 1.96875 V 0 C 2.375,-0.03125 2.890625,-0.03125 3.3125,-0.03125 c 0.421875,0 0.9375,0 1.359375,0.03125 v -0.3125 h -0.21875 c -0.734375,0 -0.75,-0.109375 -0.75,-0.46875 V -1.640625 H 4.6875 v -0.3125 H 3.703125 v -4.53125 c 0,-0.203125 0,-0.265625 -0.171875,-0.265625 -0.078125,0 -0.109375,0 -0.1875,0.125 l -3.0625,4.671875 v 0.3125 z m 0.046875,-0.3125 H 0.5625 l 2.421875,-3.71875 z m 0,0"
             id="path1417" />
        </g>
      </g>
      <g
         style="fill:#000000;fill-opacity:1"
         id="g838">
        <g
           id="use836"
           transform="translate(160.017,100.899)">
          <path
             style="stroke:none"
             d="m 1.3125,-3.265625 v -0.25 c 0,-2.515625 1.234375,-2.875 1.75,-2.875 0.234375,0 0.65625,0.0625 0.875,0.40625 -0.15625,0 -0.546875,0 -0.546875,0.4375 0,0.3125 0.234375,0.46875 0.453125,0.46875 0.15625,0 0.46875,-0.09375 0.46875,-0.484375 0,-0.59375 -0.4375,-1.078125 -1.265625,-1.078125 -1.28125,0 -2.625,1.28125 -2.625,3.484375 0,2.671875 1.15625,3.375 2.078125,3.375 1.109375,0 2.0625,-0.9375 2.0625,-2.25 0,-1.265625 -0.890625,-2.21875 -2,-2.21875 -0.671875,0 -1.046875,0.5 -1.25,0.984375 z M 2.5,-0.0625 c -0.625,0 -0.921875,-0.59375 -0.984375,-0.75 -0.1875,-0.46875 -0.1875,-1.265625 -0.1875,-1.4375 0,-0.78125 0.328125,-1.78125 1.21875,-1.78125 0.171875,0 0.625,0 0.9375,0.625 0.171875,0.359375 0.171875,0.875 0.171875,1.359375 0,0.484375 0,0.984375 -0.171875,1.34375 C 3.1875,-0.109375 2.734375,-0.0625 2.5,-0.0625 Z m 0,0"
             id="path1401" />
        </g>
      </g>
      <g
         style="fill:#000000;fill-opacity:1"
         id="g842">
        <g
           id="use840"
           transform="translate(71.015999,165.685)">
          <path
             style="stroke:none"
             d="m 6.5625,-2.296875 c 0.171875,0 0.359375,0 0.359375,-0.203125 0,-0.1875 -0.1875,-0.1875 -0.359375,-0.1875 H 1.171875 c -0.171875,0 -0.34375,0 -0.34375,0.1875 0,0.203125 0.171875,0.203125 0.34375,0.203125 z m 0,0"
             id="path1385" />
        </g>
      </g>
      <g
         style="fill:#000000;fill-opacity:1"
         id="g846">
        <g
           id="use844"
           transform="translate(78.764999,165.685)">
          <path
             style="stroke:none"
             d="m 1.3125,-3.265625 v -0.25 c 0,-2.515625 1.234375,-2.875 1.75,-2.875 0.234375,0 0.65625,0.0625 0.875,0.40625 -0.15625,0 -0.546875,0 -0.546875,0.4375 0,0.3125 0.234375,0.46875 0.453125,0.46875 0.15625,0 0.46875,-0.09375 0.46875,-0.484375 0,-0.59375 -0.4375,-1.078125 -1.265625,-1.078125 -1.28125,0 -2.625,1.28125 -2.625,3.484375 0,2.671875 1.15625,3.375 2.078125,3.375 1.109375,0 2.0625,-0.9375 2.0625,-2.25 0,-1.265625 -0.890625,-2.21875 -2,-2.21875 -0.671875,0 -1.046875,0.5 -1.25,0.984375 z M 2.5,-0.0625 c -0.625,0 -0.921875,-0.59375 -0.984375,-0.75 -0.1875,-0.46875 -0.1875,-1.265625 -0.1875,-1.4375 0,-0.78125 0.328125,-1.78125 1.21875,-1.78125 0.171875,0 0.625,0 0.9375,0.625 0.171875,0.359375 0.171875,0.875 0.171875,1.359375 0,0.484375 0,0.984375 -0.171875,1.34375 C 3.1875,-0.109375 2.734375,-0.0625 2.5,-0.0625 Z m 0,0"
             id="path1405" />
        </g>
      </g>
      <g
         style="fill:#000000;fill-opacity:1"
         id="g850">
        <g
           id="use848"
           transform="translate(71.015999,140.778)">
          <path
             style="stroke:none"
             d="m 6.5625,-2.296875 c 0.171875,0 0.359375,0 0.359375,-0.203125 0,-0.1875 -0.1875,-0.1875 -0.359375,-0.1875 H 1.171875 c -0.171875,0 -0.34375,0 -0.34375,0.1875 0,0.203125 0.171875,0.203125 0.34375,0.203125 z m 0,0"
             id="path1389" />
        </g>
      </g>
      <g
         style="fill:#000000;fill-opacity:1"
         id="g854">
        <g
           id="use852"
           transform="translate(78.764999,140.778)">
          <path
             style="stroke:none"
             d="m 2.9375,-1.640625 v 0.859375 c 0,0.359375 -0.03125,0.46875 -0.765625,0.46875 H 1.96875 V 0 C 2.375,-0.03125 2.890625,-0.03125 3.3125,-0.03125 c 0.421875,0 0.9375,0 1.359375,0.03125 v -0.3125 h -0.21875 c -0.734375,0 -0.75,-0.109375 -0.75,-0.46875 V -1.640625 H 4.6875 v -0.3125 H 3.703125 v -4.53125 c 0,-0.203125 0,-0.265625 -0.171875,-0.265625 -0.078125,0 -0.109375,0 -0.1875,0.125 l -3.0625,4.671875 v 0.3125 z m 0.046875,-0.3125 H 0.5625 l 2.421875,-3.71875 z m 0,0"
             id="path1421" />
        </g>
      </g>
      <g
         style="fill:#000000;fill-opacity:1"
         id="g858">
        <g
           id="use856"
           transform="translate(71.015999,115.871)">
          <path
             style="stroke:none"
             d="m 6.5625,-2.296875 c 0.171875,0 0.359375,0 0.359375,-0.203125 0,-0.1875 -0.1875,-0.1875 -0.359375,-0.1875 H 1.171875 c -0.171875,0 -0.34375,0 -0.34375,0.1875 0,0.203125 0.171875,0.203125 0.34375,0.203125 z m 0,0"
             id="path1393" />
        </g>
      </g>
      <g
         style="fill:#000000;fill-opacity:1"
         id="g862">
        <g
           id="use860"
           transform="translate(78.764999,115.871)">
          <path
             style="stroke:none"
             d="m 1.265625,-0.765625 1.0625,-1.03125 c 1.546875,-1.375 2.140625,-1.90625 2.140625,-2.90625 0,-1.140625 -0.890625,-1.9375 -2.109375,-1.9375 -1.125,0 -1.859375,0.921875 -1.859375,1.8125 0,0.546875 0.5,0.546875 0.53125,0.546875 0.171875,0 0.515625,-0.109375 0.515625,-0.53125 0,-0.25 -0.1875,-0.515625 -0.53125,-0.515625 -0.078125,0 -0.09375,0 -0.125,0.015625 0.21875,-0.65625 0.765625,-1.015625 1.34375,-1.015625 0.90625,0 1.328125,0.8125 1.328125,1.625 C 3.5625,-3.90625 3.078125,-3.125 2.515625,-2.5 l -1.90625,2.125 C 0.5,-0.265625 0.5,-0.234375 0.5,0 H 4.203125 L 4.46875,-1.734375 H 4.234375 C 4.171875,-1.4375 4.109375,-1 4,-0.84375 3.9375,-0.765625 3.28125,-0.765625 3.0625,-0.765625 Z m 0,0"
             id="path1437" />
        </g>
      </g>
      <g
         style="fill:#000000;fill-opacity:1"
         id="g866">
        <g
           id="use864"
           transform="translate(78.764999,66.472)">
          <path
             style="stroke:none"
             d="m 1.265625,-0.765625 1.0625,-1.03125 c 1.546875,-1.375 2.140625,-1.90625 2.140625,-2.90625 0,-1.140625 -0.890625,-1.9375 -2.109375,-1.9375 -1.125,0 -1.859375,0.921875 -1.859375,1.8125 0,0.546875 0.5,0.546875 0.53125,0.546875 0.171875,0 0.515625,-0.109375 0.515625,-0.53125 0,-0.25 -0.1875,-0.515625 -0.53125,-0.515625 -0.078125,0 -0.09375,0 -0.125,0.015625 0.21875,-0.65625 0.765625,-1.015625 1.34375,-1.015625 0.90625,0 1.328125,0.8125 1.328125,1.625 C 3.5625,-3.90625 3.078125,-3.125 2.515625,-2.5 l -1.90625,2.125 C 0.5,-0.265625 0.5,-0.234375 0.5,0 H 4.203125 L 4.46875,-1.734375 H 4.234375 C 4.171875,-1.4375 4.109375,-1 4,-0.84375 3.9375,-0.765625 3.28125,-0.765625 3.0625,-0.765625 Z m 0,0"
             id="path1441" />
        </g>
      </g>
      <g
         style="fill:#000000;fill-opacity:1"
         id="g870">
        <g
           id="use868"
           transform="translate(78.764999,41.564999)">
          <path
             style="stroke:none"
             d="m 2.9375,-1.640625 v 0.859375 c 0,0.359375 -0.03125,0.46875 -0.765625,0.46875 H 1.96875 V 0 C 2.375,-0.03125 2.890625,-0.03125 3.3125,-0.03125 c 0.421875,0 0.9375,0 1.359375,0.03125 v -0.3125 h -0.21875 c -0.734375,0 -0.75,-0.109375 -0.75,-0.46875 V -1.640625 H 4.6875 v -0.3125 H 3.703125 v -4.53125 c 0,-0.203125 0,-0.265625 -0.171875,-0.265625 -0.078125,0 -0.109375,0 -0.1875,0.125 l -3.0625,4.671875 v 0.3125 z m 0.046875,-0.3125 H 0.5625 l 2.421875,-3.71875 z m 0,0"
             id="path1425" />
        </g>
      </g>
      <g
         style="fill:#000000;fill-opacity:1"
         id="g874">
        <g
           id="use872"
           transform="translate(78.764999,16.658001)">
          <path
             style="stroke:none"
             d="m 1.3125,-3.265625 v -0.25 c 0,-2.515625 1.234375,-2.875 1.75,-2.875 0.234375,0 0.65625,0.0625 0.875,0.40625 -0.15625,0 -0.546875,0 -0.546875,0.4375 0,0.3125 0.234375,0.46875 0.453125,0.46875 0.15625,0 0.46875,-0.09375 0.46875,-0.484375 0,-0.59375 -0.4375,-1.078125 -1.265625,-1.078125 -1.28125,0 -2.625,1.28125 -2.625,3.484375 0,2.671875 1.15625,3.375 2.078125,3.375 1.109375,0 2.0625,-0.9375 2.0625,-2.25 0,-1.265625 -0.890625,-2.21875 -2,-2.21875 -0.671875,0 -1.046875,0.5 -1.25,0.984375 z M 2.5,-0.0625 c -0.625,0 -0.921875,-0.59375 -0.984375,-0.75 -0.1875,-0.46875 -0.1875,-1.265625 -0.1875,-1.4375 0,-0.78125 0.328125,-1.78125 1.21875,-1.78125 0.171875,0 0.625,0 0.9375,0.625 0.171875,0.359375 0.171875,0.875 0.171875,1.359375 0,0.484375 0,0.984375 -0.171875,1.34375 C 3.1875,-0.109375 2.734375,-0.0625 2.5,-0.0625 Z m 0,0"
             id="path1409" />
        </g>
      </g>
      <g
         clip-path="url(#clip1)"
         clip-rule="nonzero"
         id="g878">
        <path
           style="fill:none;stroke:#ff0000;stroke-width:0.99628;stroke-linecap:butt;stroke-linejoin:miter;stroke-miterlimit:10;stroke-opacity:1"
           d="M 62.265906,149.44066 2.851844,60.319562"
           transform="matrix(1,0,0,-1,0.613,175.343)"
           id="path876" />
      </g>
      <path
         style="fill:#ff0000;fill-opacity:1;fill-rule:nonzero;stroke:none"
         d="m 1.859375,117.43359 4.5,-2.57031 -2.894531,0.16016 L 2.5,112.28906"
         id="path880" />
      <path
         style="fill:none;stroke:#ff0000;stroke-width:0.99628;stroke-linecap:butt;stroke-linejoin:miter;stroke-miterlimit:10;stroke-opacity:1"
         d="M 62.265906,43.585187 124.53544,74.721906"
         transform="matrix(1,0,0,-1,0.613,175.343)"
         id="path882" />
      <g
         clip-path="url(#clip2)"
         clip-rule="nonzero"
         id="g886">
        <path
           style="fill:none;stroke:#ff0000;stroke-width:0.99628;stroke-linecap:butt;stroke-linejoin:miter;stroke-miterlimit:10;stroke-opacity:1"
           d="m 124.53544,74.721906 2.02344,-3.71875 2.02343,-3.0625 2.02344,-2.402344 2.02344,-1.746093 2.02343,-1.085938 2.02344,-0.429687 2.02344,0.226562 2.02344,0.886719 2.02343,1.542969 2.02344,2.199218 2.02344,2.859375 2.02734,3.515625 2.02344,4.171875 2.02344,4.832032 2.02344,5.488281 2.02343,6.148437 2.02344,6.804693 2.02344,7.46093 2.02344,8.1211 2.02343,8.77734 2.02344,9.4375 2.02344,10.09375 2.02344,10.75 1.51953,8.55859"
           transform="matrix(1,0,0,-1,0.613,175.343)"
           id="path884" />
      </g>
      <g
         clip-path="url(#clip3)"
         clip-rule="nonzero"
         id="g890">
        <path
           style="fill:#ff0000;fill-opacity:1;fill-rule:nonzero;stroke:none"
           d="m 173.71484,8.34375 -3.08593,4.152344 2.58203,-1.304688 1.97656,2.113282"
           id="path888" />
      </g>
      <path
         style="fill:#ff0000;fill-opacity:1;fill-rule:nonzero;stroke:#ff0000;stroke-width:0.3985;stroke-linecap:butt;stroke-linejoin:miter;stroke-miterlimit:10;stroke-opacity:1"
         d="m 64.258094,149.44066 c 0,1.10156 -0.890625,1.99218 -1.992188,1.99218 -1.097656,0 -1.992187,-0.89062 -1.992187,-1.99218 0,-1.09766 0.894531,-1.99219 1.992187,-1.99219 1.101563,0 1.992188,0.89453 1.992188,1.99219 z m 0,0"
         transform="matrix(1,0,0,-1,0.613,175.343)"
         id="path892" />
      <path
         style="fill:#ff0000;fill-opacity:1;fill-rule:nonzero;stroke:#ff0000;stroke-width:0.3985;stroke-linecap:butt;stroke-linejoin:miter;stroke-miterlimit:10;stroke-opacity:1"
         d="m 151.43387,99.628156 c 0,1.101564 -0.89062,1.992184 -1.99218,1.992184 -1.10157,0 -1.99219,-0.89062 -1.99219,-1.992184 0,-1.101562 0.89062,-1.992187 1.99219,-1.992187 1.10156,0 1.99218,0.890625 1.99218,1.992187 z m 0,0"
         transform="matrix(1,0,0,-1,0.613,175.343)"
         id="path894" />
      <path
         style="fill:#ffffff;fill-opacity:1;fill-rule:nonzero;stroke:#ff0000;stroke-width:0.3985;stroke-linecap:butt;stroke-linejoin:miter;stroke-miterlimit:10;stroke-opacity:1"
         d="m 64.258094,43.585187 c 0,1.101563 -0.890625,1.996094 -1.992188,1.996094 -1.097656,0 -1.992187,-0.894531 -1.992187,-1.996094 0,-1.097656 0.894531,-1.992187 1.992187,-1.992187 1.101563,0 1.992188,0.894531 1.992188,1.992187 z m 0,0"
         transform="matrix(1,0,0,-1,0.613,175.343)"
         id="path896" />
      <path
         style="fill:#ffffff;fill-opacity:1;fill-rule:nonzero;stroke:#ff0000;stroke-width:0.3985;stroke-linecap:butt;stroke-linejoin:miter;stroke-miterlimit:10;stroke-opacity:1"
         d="m 114.0745,68.495344 c 0,1.097656 -0.89453,1.992187 -1.99219,1.992187 -1.10156,0 -1.99218,-0.894531 -1.99218,-1.992187 0,-1.101563 0.89062,-1.992188 1.99218,-1.992188 1.09766,0 1.99219,0.890625 1.99219,1.992188 z m 0,0"
         transform="matrix(1,0,0,-1,0.613,175.343)"
         id="path898" />
      <path
         style="fill:#ffffff;fill-opacity:1;fill-rule:nonzero;stroke:#ff0000;stroke-width:0.3985;stroke-linecap:butt;stroke-linejoin:miter;stroke-miterlimit:10;stroke-opacity:1"
         d="m 151.43387,74.721906 c 0,1.097656 -0.89062,1.992188 -1.99218,1.992188 -1.10157,0 -1.99219,-0.894532 -1.99219,-1.992188 0,-1.101562 0.89062,-1.992187 1.99219,-1.992187 1.10156,0 1.99218,0.890625 1.99218,1.992187 z m 0,0"
         transform="matrix(1,0,0,-1,0.613,175.343)"
         id="path900" />
      <g
         style="fill:#000000;fill-opacity:1"
         id="g904">
        <g
           id="use902"
           transform="translate(166.55,83.985001)">
          <path
             style="stroke:none"
             d="M 2.40625,-4.8125 H 3.5 c 0.234375,0 0.34375,0 0.34375,-0.203125 0,-0.140625 -0.0625,-0.140625 -0.3125,-0.140625 H 2.484375 l 0.4375,-1.734375 C 2.96875,-7.0625 2.96875,-7.09375 2.96875,-7.171875 c 0,-0.1875 -0.140625,-0.296875 -0.296875,-0.296875 -0.109375,0 -0.375,0.03125 -0.46875,0.421875 l -0.46875,1.890625 h -1.125 c -0.234375,0 -0.34375,0 -0.34375,0.234375 0,0.109375 0.078125,0.109375 0.3125,0.109375 h 1.0625 L 0.84375,-1.65625 c -0.09375,0.421875 -0.125,0.546875 -0.125,0.703125 0,0.5625 0.390625,1.078125 1.0625,1.078125 1.203125,0 1.859375,-1.75 1.859375,-1.828125 0,-0.078125 -0.0625,-0.109375 -0.125,-0.109375 -0.03125,0 -0.078125,0 -0.09375,0.046875 C 3.40625,-1.75 3.390625,-1.75 3.3125,-1.546875 c -0.25,0.59375 -0.796875,1.421875 -1.5,1.421875 -0.359375,0 -0.375,-0.296875 -0.375,-0.5625 0,0 0,-0.234375 0.03125,-0.375 z m 0,0"
             id="path1445" />
        </g>
      </g>
      <g
         style="fill:#000000;fill-opacity:1"
         id="g908">
        <g
           id="use906"
           transform="translate(91.971001,10.326)">
          <path
             style="stroke:none"
             d="m 3.140625,1.34375 c -0.3125,0.453125 -0.78125,0.859375 -1.375,0.859375 C 1.625,2.203125 1.046875,2.171875 0.875,1.625 c 0.03125,0.015625 0.09375,0.015625 0.109375,0.015625 0.359375,0 0.609375,-0.3125 0.609375,-0.59375 C 1.59375,0.78125 1.359375,0.6875 1.1875,0.6875 c -0.203125,0 -0.609375,0.140625 -0.609375,0.71875 0,0.609375 0.515625,1.03125 1.1875,1.03125 C 2.96875,2.4375 4.171875,1.34375 4.5,0.015625 L 5.671875,-4.65625 C 5.6875,-4.703125 5.71875,-4.78125 5.71875,-4.859375 5.71875,-5.03125 5.5625,-5.15625 5.390625,-5.15625 5.28125,-5.15625 5.03125,-5.109375 4.9375,-4.75 L 4.046875,-1.234375 C 4,-1.015625 4,-0.984375 3.890625,-0.859375 3.65625,-0.53125 3.265625,-0.125 2.6875,-0.125 c -0.671875,0 -0.734375,-0.65625 -0.734375,-0.96875 0,-0.6875 0.328125,-1.609375 0.65625,-2.46875 0.125,-0.34375 0.203125,-0.515625 0.203125,-0.75 0,-0.5 -0.359375,-0.953125 -0.953125,-0.953125 -1.09375,0 -1.53125,1.734375 -1.53125,1.828125 0,0.046875 0.046875,0.109375 0.125,0.109375 0.109375,0 0.125,-0.046875 0.171875,-0.21875 0.28125,-1 0.734375,-1.484375 1.203125,-1.484375 0.109375,0 0.3125,0 0.3125,0.390625 0,0.3125 -0.125,0.65625 -0.3125,1.109375 C 1.25,-1.953125 1.25,-1.5625 1.25,-1.28125 1.25,-0.140625 2.0625,0.125 2.65625,0.125 3,0.125 3.4375,0.015625 3.84375,-0.4375 l 0.015625,0.015625 C 3.6875,0.28125 3.5625,0.75 3.140625,1.34375 Z m 0,0"
             id="path1449" />
        </g>
      </g>
    </g>
  </g>
</svg>
